<!--?xml version="1.0" standalone="no"?-->
              <svg id="sw-js-blob-svg" viewBox="0 0 100 100" xmlns="http://www.w3.org/2000/svg" version="1.1">
                    <defs> 
                        <linearGradient id="sw-gradient" x1="0" x2="1" y1="1" y2="0">
                            <stop id="stop1" stop-color="rgba(10.691, 123.57, 133.334, 1)" offset="0%"></stop>
                            <stop id="stop2" stop-color="rgba(251, 168, 31, 1)" offset="100%"></stop>
                        </linearGradient>
                    </defs>
                <path fill="rgba(10.691, 123.57, 133.334, 1)" d="M19.7,-34.8C24.2,-31.4,25.6,-23.5,28,-17C30.3,-10.4,33.6,-5.2,35.3,1C37.1,7.2,37.3,14.4,34.6,20.5C31.9,26.5,26.4,31.3,20.2,33.5C13.9,35.7,7,35.2,0.9,33.6C-5.1,32,-10.2,29.3,-16.6,27.2C-23,25.1,-30.7,23.6,-36.3,19.2C-41.8,14.8,-45.3,7.4,-46.1,-0.5C-46.9,-8.3,-45.1,-16.7,-40.4,-22.6C-35.7,-28.5,-28.1,-32,-20.9,-33.8C-13.7,-35.6,-6.8,-35.6,0.4,-36.3C7.6,-36.9,15.1,-38.1,19.7,-34.8Z" width="100%" height="100%" transform="translate(50 50)" stroke-width="0" style="transition: all 0.3s ease 0s;" stroke="rgba(10.691, 123.57, 133.334, 1)"></path>
              </svg>